<svg id="_x31__x2C_5" enable-background="new 0 0 24 24" height="512" viewBox="0 0 24 24" width="512" xmlns="http://www.w3.org/2000/svg"><path d="m21.75 23h-19.5c-1.24 0-2.25-1.01-2.25-2.25v-12.1c0-.827.453-1.585 1.184-1.98l2.213-1.182c.367-.193.819-.057 1.016.309.194.366.057.82-.309 1.016l-2.21 1.18c-.239.127-.394.387-.394.657v12.1c0 .413.337.75.75.75h19.5c.413 0 .75-.337.75-.75v-12.1c0-.271-.155-.53-.396-.66l-2.207-1.178c-.365-.195-.503-.649-.309-1.016.196-.365.647-.503 1.016-.309l2.21 1.18c.733.398 1.186 1.156 1.186 1.983v12.1c0 1.24-1.01 2.25-2.25 2.25z"/><path d="m11.999 16.996c-.438 0-.875-.104-1.274-.311l-10.323-5.39c-.366-.192-.509-.646-.317-1.013.191-.365.642-.509 1.013-.317l10.32 5.39c.364.19.802.188 1.166-.001l10.318-5.389c.371-.191.821-.048 1.013.317.191.367.049.82-.317 1.013l-10.32 5.39c-.401.207-.841.311-1.279.311z"/><path d="m20.25 12.95c-.414 0-.75-.336-.75-.75v-9.45c0-.689-.561-1.25-1.25-1.25h-12.5c-.689 0-1.25.561-1.25 1.25v9.45c0 .414-.336.75-.75.75s-.75-.336-.75-.75v-9.45c0-1.517 1.233-2.75 2.75-2.75h12.5c1.517 0 2.75 1.233 2.75 2.75v9.45c0 .414-.336.75-.75.75z"/><path d="m12 13c-2.757 0-5-2.243-5-5s2.243-5 5-5 5 2.243 5 5-2.243 5-5 5zm0-8.5c-1.93 0-3.5 1.57-3.5 3.5s1.57 3.5 3.5 3.5 3.5-1.57 3.5-3.5-1.57-3.5-3.5-3.5z"/><path d="m8.28 10.26h-.25c-.414 0-.75-.336-.75-.75s.336-.75.75-.75h.25c.105 0 .196-.037.27-.11.051-.051.11-.138.11-.27.016-.458.17-.878.434-1.209.32-.372.705-.6 1.131-.678.345-.079.605-.395.605-.763v-.41c0-.354-.131-.684-.367-.927-.289-.297-.283-.771.014-1.061s.773-.281 1.061.014c.512.524.793 1.226.793 1.974v.41c0 1.074-.742 1.992-1.805 2.231-.115.022-.199.076-.277.167-.047.06-.084.165-.088.277 0 .479-.195.951-.551 1.305-.354.354-.827.55-1.33.55z"/><path d="m13.66 12.67c-.187 0-.374-.069-.52-.209l-.271-.26c-1.042-.989-1.167-2.609-.287-3.766.438-.55 1.07-.905 1.744-.989.301-.04.63-.021.951.054l.312.09c.057.012.149-.006.228-.06.343-.234.811-.144 1.042.198.233.343.145.81-.198 1.042-.423.289-.954.386-1.453.27l-.31-.09c-.107-.023-.255-.029-.382-.017-.294.037-.566.191-.751.424-.405.532-.35 1.294.14 1.759l.273.263c.299.287.309.762.021 1.061-.145.153-.342.23-.539.23z"/></svg>